<svg xmlns="http://www.w3.org/2000/svg" xmlns:xlink="http://www.w3.org/1999/xlink" width="500" zoomAndPan="magnify" viewBox="0 0 375 374.999991" height="500" preserveAspectRatio="xMidYMid meet" version="1.0"><defs><g/><clipPath id="5665f0a5c0"><path d="M 167 122 L 225 122 L 225 139 L 167 139 Z M 167 122 " clip-rule="nonzero"/></clipPath><clipPath id="03c87e3318"><path d="M 202.257812 210.121094 L 130.449219 140.886719 L 201.765625 66.917969 L 273.574219 136.152344 Z M 202.257812 210.121094 " clip-rule="nonzero"/></clipPath><clipPath id="f2eadf6098"><path d="M 202.09375 66.8125 L 273.902344 136.046875 L 202.585938 210.015625 L 130.777344 140.78125 Z M 202.09375 66.8125 " clip-rule="nonzero"/></clipPath><clipPath id="7cdc42bbbe"><path d="M 222 115 L 259 115 L 259 152 L 222 152 Z M 222 115 " clip-rule="nonzero"/></clipPath><clipPath id="1e8155d981"><path d="M 202.257812 210.121094 L 130.449219 140.886719 L 201.765625 66.917969 L 273.574219 136.152344 Z M 202.257812 210.121094 " clip-rule="nonzero"/></clipPath><clipPath id="6563d8b3f6"><path d="M 202.09375 66.8125 L 273.902344 136.046875 L 202.585938 210.015625 L 130.777344 140.78125 Z M 202.09375 66.8125 " clip-rule="nonzero"/></clipPath><clipPath id="cce7d9ea53"><path d="M 132 110 L 248 110 L 248 144 L 132 144 Z M 132 110 " clip-rule="nonzero"/></clipPath><clipPath id="ed73b665aa"><path d="M 202.257812 210.121094 L 130.449219 140.886719 L 201.765625 66.917969 L 273.574219 136.152344 Z M 202.257812 210.121094 " clip-rule="nonzero"/></clipPath><clipPath id="745396b064"><path d="M 202.09375 66.8125 L 273.902344 136.046875 L 202.585938 210.015625 L 130.777344 140.78125 Z M 202.09375 66.8125 " clip-rule="nonzero"/></clipPath><clipPath id="f69249add9"><path d="M 145.480469 138.472656 L 229.480469 138.472656 L 229.480469 222.472656 L 145.480469 222.472656 Z M 145.480469 138.472656 " clip-rule="nonzero"/></clipPath><clipPath id="d7214f791a"><path d="M 176 140 L 229.480469 140 L 229.480469 191 L 176 191 Z M 176 140 " clip-rule="nonzero"/></clipPath><clipPath id="324a77af41"><path d="M 162 138.472656 L 182 138.472656 L 182 152 L 162 152 Z M 162 138.472656 " clip-rule="nonzero"/></clipPath><clipPath id="7717abcbe7"><path d="M 145.480469 153 L 157 153 L 157 178 L 145.480469 178 Z M 145.480469 153 " clip-rule="nonzero"/></clipPath><clipPath id="6c6f0d1457"><path d="M 211.089844 155.582031 L 225.339844 155.582031 L 225.339844 165.332031 L 211.089844 165.332031 Z M 211.089844 155.582031 " clip-rule="nonzero"/></clipPath></defs><g clip-path="url(#5665f0a5c0)"><g clip-path="url(#03c87e3318)"><g clip-path="url(#f2eadf6098)"><path fill="#16aee8" d="M 224.65625 135.671875 C 224.394531 135.8125 224.128906 135.949219 223.863281 136.085938 L 218.800781 138.558594 C 218.550781 138.335938 218.304688 138.117188 218.050781 137.902344 C 204.453125 126.277344 185.585938 121.464844 167.308594 126.363281 C 167.746094 126.1875 168.179688 126.019531 168.625 125.855469 C 169.269531 125.605469 169.925781 125.375 170.582031 125.148438 C 176.578125 123.144531 182.675781 122.203125 188.664062 122.242188 C 200.972656 122.3125 212.828125 126.480469 222.414062 133.851562 C 223.175781 134.4375 223.925781 135.042969 224.65625 135.671875 Z M 224.65625 135.671875 " fill-opacity="1" fill-rule="evenodd"/></g></g></g><g clip-path="url(#7cdc42bbbe)"><g clip-path="url(#1e8155d981)"><g clip-path="url(#6563d8b3f6)"><path fill="#1b468f" d="M 258.726562 151.429688 C 258.472656 151.558594 258.136719 151.582031 257.714844 151.496094 C 256.699219 151.300781 255.226562 150.523438 253.449219 149.328125 C 253.386719 149.285156 253.324219 149.242188 253.269531 149.199219 C 252.234375 148.496094 251.101562 147.65625 249.910156 146.710938 C 248.984375 145.96875 248.019531 145.171875 247.019531 144.320312 L 244.710938 144.730469 L 240.273438 145.515625 L 237.109375 146.078125 L 237.109375 146.070312 L 231.5 147.074219 L 228.152344 147.667969 L 226.976562 147.867188 L 225.640625 148.105469 L 225.261719 148.171875 C 224.632812 148.230469 223.980469 148.023438 223.492188 147.550781 C 222.597656 146.6875 222.570312 145.261719 223.433594 144.363281 C 223.519531 144.273438 223.609375 144.195312 223.707031 144.125 C 224 143.992188 224.296875 143.859375 224.589844 143.722656 C 224.664062 143.6875 224.742188 143.652344 224.816406 143.617188 C 224.921875 143.574219 225.023438 143.53125 225.125 143.484375 L 230.835938 140.699219 C 233.214844 139.464844 235.542969 138.171875 237.800781 136.828125 C 237.882812 136.78125 237.960938 136.734375 238.042969 136.6875 L 227.765625 126.777344 L 232.160156 122.21875 C 233.191406 122.894531 234.203125 123.59375 235.203125 124.324219 C 236.769531 125.476562 238.300781 126.691406 239.773438 127.96875 L 243.234375 131.304688 C 243.25 131.273438 243.265625 131.246094 243.28125 131.214844 C 244.570312 128.859375 245.804688 126.429688 246.980469 123.953125 L 249.222656 118.894531 L 249.554688 118.148438 C 249.597656 118.042969 249.636719 117.9375 249.679688 117.832031 C 249.710938 117.753906 249.742188 117.679688 249.773438 117.601562 C 249.898438 117.304688 250.019531 117.003906 250.144531 116.707031 C 250.210938 116.609375 250.285156 116.515625 250.371094 116.425781 C 251.238281 115.527344 252.664062 115.5 253.558594 116.363281 C 254.050781 116.835938 254.277344 117.480469 254.246094 118.109375 L 254.191406 118.496094 L 254.003906 119.835938 L 253.847656 121.015625 L 253.476562 123.683594 L 253.378906 124.382812 L 252.582031 130.023438 L 252.585938 130.027344 L 252.140625 133.207031 L 251.191406 139.992188 C 252.078125 140.957031 252.914062 141.894531 253.6875 142.796875 C 254.675781 143.949219 255.554688 145.046875 256.296875 146.058594 C 256.339844 146.113281 256.390625 146.175781 256.433594 146.234375 C 257.695312 147.964844 258.523438 149.410156 258.753906 150.417969 C 258.851562 150.835938 258.84375 151.175781 258.726562 151.429688 Z M 258.726562 151.429688 " fill-opacity="1" fill-rule="evenodd"/></g></g></g><g clip-path="url(#cce7d9ea53)"><g clip-path="url(#ed73b665aa)"><g clip-path="url(#745396b064)"><path fill="#1b468f" d="M 245.269531 133.265625 C 244.617188 132.566406 243.957031 131.882812 243.28125 131.214844 C 242.144531 130.089844 240.976562 129.007812 239.777344 127.96875 C 238.300781 126.691406 236.773438 125.476562 235.203125 124.324219 C 234.207031 123.59375 233.195312 122.894531 232.160156 122.21875 C 214.417969 110.578125 191.707031 106.902344 170.035156 114.171875 C 154.082031 119.523438 141.261719 129.945312 132.761719 143.042969 C 132.957031 142.789062 133.160156 142.535156 133.371094 142.292969 L 133.691406 141.902344 C 133.96875 141.574219 134.25 141.238281 134.535156 140.910156 C 134.636719 140.796875 134.734375 140.683594 134.839844 140.566406 C 134.96875 140.417969 135.101562 140.269531 135.234375 140.121094 C 135.25 140.101562 135.269531 140.082031 135.285156 140.0625 C 135.402344 139.9375 135.515625 139.804688 135.628906 139.675781 C 135.667969 139.636719 135.707031 139.597656 135.75 139.550781 C 135.816406 139.480469 135.878906 139.40625 135.941406 139.335938 C 136.15625 139.105469 136.375 138.871094 136.59375 138.636719 L 136.601562 138.625 C 136.714844 138.507812 136.835938 138.382812 136.953125 138.261719 L 137.148438 138.058594 C 164.273438 109.925781 209.0625 109.109375 237.195312 136.230469 C 237.398438 136.429688 237.605469 136.628906 237.804688 136.828125 C 237.886719 136.78125 237.964844 136.734375 238.046875 136.683594 L 230.382812 129.296875 C 230.386719 129.300781 230.394531 129.304688 230.398438 129.308594 C 230.402344 129.308594 230.40625 129.3125 230.410156 129.316406 C 230.527344 129.40625 230.648438 129.5 230.769531 129.589844 C 231.050781 129.808594 231.332031 130.027344 231.609375 130.253906 C 231.753906 130.367188 231.894531 130.480469 232.035156 130.59375 C 232.292969 130.804688 232.550781 131.011719 232.804688 131.230469 C 232.945312 131.347656 233.085938 131.464844 233.230469 131.589844 C 233.492188 131.8125 233.753906 132.03125 234.011719 132.257812 C 234.136719 132.371094 234.261719 132.480469 234.386719 132.59375 C 234.726562 132.890625 235.058594 133.195312 235.390625 133.503906 C 235.429688 133.539062 235.472656 133.578125 235.511719 133.613281 C 235.878906 133.960938 236.25 134.308594 236.617188 134.660156 C 236.726562 134.777344 236.839844 134.886719 236.953125 135 C 237.203125 135.25 237.453125 135.496094 237.695312 135.746094 C 237.832031 135.875 237.960938 136.011719 238.089844 136.152344 C 238.3125 136.386719 238.542969 136.621094 238.769531 136.863281 C 238.894531 137.003906 239.03125 137.140625 239.152344 137.277344 C 239.398438 137.539062 239.632812 137.796875 239.867188 138.054688 C 239.882812 138.074219 239.898438 138.097656 239.917969 138.113281 C 242.507812 137.105469 245.234375 136.515625 247.980469 136.34375 C 247.101562 135.289062 246.199219 134.261719 245.269531 133.265625 Z M 245.269531 133.265625 " fill-opacity="1" fill-rule="evenodd"/></g></g></g><g clip-path="url(#f69249add9)"><path fill="#0095cf" d="M 229.519531 180.484375 C 229.519531 180.585938 229.519531 180.695312 229.511719 180.796875 C 229.5 182.863281 229.335938 184.898438 229.027344 186.890625 C 227.5625 196.503906 222.84375 205.039062 216.03125 211.335938 L 216.023438 211.335938 C 208.527344 218.269531 198.5 222.511719 187.492188 222.511719 C 182.105469 222.511719 176.957031 221.5 172.230469 219.644531 C 171.644531 219.425781 171.0625 219.179688 170.488281 218.925781 C 162.496094 215.386719 155.820312 209.425781 151.378906 201.96875 C 149.148438 198.222656 147.476562 194.097656 146.492188 189.714844 C 145.824219 186.742188 145.472656 183.652344 145.472656 180.484375 C 145.472656 179.375 145.515625 178.273438 145.609375 177.191406 C 146.316406 167.972656 150.003906 159.59375 155.707031 153.007812 C 157.902344 150.46875 160.398438 148.199219 163.136719 146.25 L 163.144531 146.246094 C 163.886719 145.71875 164.644531 145.207031 165.429688 144.730469 C 170.203125 141.777344 175.605469 139.746094 181.398438 138.902344 C 183.386719 138.613281 185.421875 138.464844 187.492188 138.464844 C 192.425781 138.464844 197.171875 139.320312 201.570312 140.886719 C 208.675781 143.40625 214.890625 147.789062 219.648438 153.4375 C 225.8125 160.746094 229.519531 170.183594 229.519531 180.484375 " fill-opacity="1" fill-rule="nonzero"/></g><path fill="#7ed957" d="M 193.109375 213.375 C 193.109375 213.375 190.820312 210.179688 191.074219 204.710938 C 191.328125 199.238281 190.820312 198.328125 187.261719 197.1875 C 183.703125 196.046875 180.144531 193.992188 179.636719 191.257812 C 179.128906 188.523438 182.179688 182.140625 182.179688 182.140625 C 182.179688 182.140625 186.246094 179.402344 189.804688 179.859375 C 193.359375 180.316406 199.460938 180.316406 202.253906 182.824219 C 205.050781 185.332031 206.828125 191.03125 208.097656 191.257812 C 209.371094 191.488281 206.320312 201.289062 205.8125 202.886719 C 205.304688 204.480469 203.78125 210.867188 202.511719 213.375 C 201.238281 215.882812 199.96875 218.160156 198.953125 218.160156 C 197.933594 218.160156 193.359375 218.617188 193.109375 213.375 " fill-opacity="1" fill-rule="nonzero"/><path fill="#7ed957" d="M 173.363281 212.851562 C 173.140625 213.929688 172.742188 216.792969 172.230469 219.644531 C 171.644531 219.425781 171.0625 219.179688 170.488281 218.925781 C 162.496094 215.386719 155.820312 209.425781 151.378906 201.96875 C 149.148438 198.222656 147.476562 194.097656 146.492188 189.714844 C 148.039062 188.890625 149.984375 188.148438 151.890625 188.183594 C 156.070312 188.265625 156.597656 189.292969 160.15625 191.847656 C 163.707031 194.402344 166.492188 200.777344 167.996094 200.886719 C 169.5 200.988281 173.746094 210.9375 173.363281 212.851562 " fill-opacity="1" fill-rule="nonzero"/><g clip-path="url(#d7214f791a)"><path fill="#7ed957" d="M 229.519531 180.484375 C 229.519531 180.585938 229.519531 180.695312 229.511719 180.796875 C 229.5 182.863281 229.335938 184.898438 229.027344 186.890625 C 227.140625 184.121094 225.101562 179.960938 224.066406 179.230469 C 222.46875 178.105469 216.609375 177.429688 218.738281 180.355469 C 220.871094 183.289062 221.773438 183.289062 221.773438 183.289062 C 221.773438 183.289062 217.675781 191.542969 214.75 190.742188 C 211.816406 189.945312 205.957031 179.230469 205.957031 179.230469 C 202.5 176.507812 209.152344 174.5 209.152344 174.5 C 209.152344 174.5 211.285156 172.636719 208.085938 170.507812 C 204.894531 168.378906 202.5 172.902344 200.371094 172.367188 C 198.238281 171.835938 197.707031 173.964844 197.039062 176.097656 C 196.371094 178.226562 194.429688 179.5 193.976562 176.097656 C 193.519531 172.691406 188.652344 174.769531 187.054688 174.769531 C 185.457031 174.769531 182.261719 180.355469 179.328125 180.355469 C 176.402344 180.355469 176.402344 176.367188 176.9375 174.5 C 177.46875 172.636719 181.992188 170.769531 186.253906 170.507812 C 190.511719 170.238281 186.523438 166.511719 187.851562 165.789062 C 189.183594 165.058594 193.175781 166.246094 197.039062 167.84375 C 200.894531 169.441406 204.894531 165.714844 208.359375 165.789062 C 211.816406 165.863281 200.902344 163.050781 204.359375 160.386719 C 207.828125 157.726562 200.371094 155.328125 200.632812 152.398438 C 200.902344 149.46875 198.5 146.007812 198.5 142.8125 C 198.5 141.796875 199.632812 141.132812 201.570312 140.886719 C 208.675781 143.40625 214.890625 147.789062 219.648438 153.4375 C 225.8125 160.746094 229.519531 170.183594 229.519531 180.484375 " fill-opacity="1" fill-rule="nonzero"/></g><path fill="#7ed957" d="M 170.03125 166.28125 C 170.03125 166.28125 171.574219 168.101562 172.761719 166.28125 C 173.953125 164.453125 174.125 163 173.378906 162.871094 C 172.628906 162.734375 168.199219 165.519531 170.03125 166.28125 " fill-opacity="1" fill-rule="nonzero"/><path fill="#7ed957" d="M 161.039062 166.28125 C 161.039062 166.28125 164.210938 165.46875 164.914062 163.882812 C 165.621094 162.292969 169.675781 163 170.734375 161.414062 C 171.792969 159.824219 174.53125 159.257812 175.191406 157.777344 C 175.847656 156.300781 176.566406 154.007812 173.828125 153.828125 C 171.089844 153.652344 168.386719 152.421875 168.417969 153.828125 C 168.441406 155.242188 167.738281 154.886719 165.269531 155.769531 C 162.800781 156.652344 160.15625 155.378906 160.15625 157.777344 C 160.15625 160.179688 160.863281 162.863281 160.863281 162.863281 C 160.863281 162.863281 159.449219 164.800781 161.039062 166.28125 " fill-opacity="1" fill-rule="nonzero"/><g clip-path="url(#324a77af41)"><path fill="#7ed957" d="M 181.398438 138.902344 C 181.398438 138.902344 176.671875 145.214844 175.796875 145.382812 C 174.914062 145.550781 172.210938 147.402344 171.710938 149.257812 C 171.207031 151.113281 167.664062 152.292969 164.96875 151.113281 C 162.273438 149.933594 161.652344 148.632812 163.136719 146.25 L 163.144531 146.246094 C 163.886719 145.71875 164.644531 145.207031 165.429688 144.730469 C 170.203125 141.777344 175.605469 139.746094 181.398438 138.902344 " fill-opacity="1" fill-rule="nonzero"/></g><g clip-path="url(#7717abcbe7)"><path fill="#7ed957" d="M 154.914062 163.699219 C 154.464844 165.046875 154.574219 166.617188 153.117188 167.089844 C 151.65625 167.5625 152.214844 169.3125 151.203125 171.558594 C 150.292969 173.582031 146.390625 176.601562 145.609375 177.191406 C 146.316406 167.972656 150.003906 159.59375 155.707031 153.007812 C 156.300781 154.808594 156.070312 157.777344 156.597656 158.75 C 157.386719 160.210938 155.363281 162.351562 154.914062 163.699219 " fill-opacity="1" fill-rule="nonzero"/></g><g clip-path="url(#6c6f0d1457)"><path fill="#f8bf3c" d="M 213.15625 165.332031 L 223.269531 165.332031 L 223.4375 164.546875 L 212.988281 164.546875 Z M 224.617188 158.320312 C 225.015625 158.320312 225.335938 158.648438 225.335938 159.054688 C 225.335938 159.460938 225.015625 159.789062 224.617188 159.789062 C 224.566406 159.789062 224.515625 159.785156 224.464844 159.773438 L 223.605469 163.777344 L 212.824219 163.777344 L 211.964844 159.773438 C 211.914062 159.785156 211.863281 159.789062 211.808594 159.789062 C 211.414062 159.789062 211.089844 159.460938 211.089844 159.054688 C 211.089844 158.648438 211.414062 158.320312 211.808594 158.320312 C 212.207031 158.320312 212.527344 158.648438 212.527344 159.054688 C 212.527344 159.230469 212.464844 159.394531 212.363281 159.519531 C 213.484375 160.371094 214.667969 160.753906 215.695312 160.492188 C 217.023438 160.152344 217.808594 158.8125 217.949219 157.003906 C 217.683594 156.894531 217.496094 156.628906 217.496094 156.320312 C 217.496094 155.914062 217.816406 155.582031 218.214844 155.582031 C 218.609375 155.582031 218.933594 155.914062 218.933594 156.320312 C 218.933594 156.628906 218.742188 156.894531 218.480469 157.003906 C 218.617188 158.8125 219.402344 160.152344 220.730469 160.492188 C 221.761719 160.753906 222.941406 160.371094 224.0625 159.519531 C 223.960938 159.394531 223.902344 159.230469 223.902344 159.054688 C 223.902344 158.648438 224.222656 158.320312 224.617188 158.320312 Z M 224.617188 158.320312 " fill-opacity="1" fill-rule="evenodd"/></g><g fill="#000000" fill-opacity="1"><g transform="translate(113.470407, 240.28185)"><g><path d="M 0.78125 0 L 0.78125 -9.78125 L 3.8125 -9.78125 C 4.832031 -9.78125 5.609375 -9.550781 6.140625 -9.09375 C 6.671875 -8.644531 6.9375 -7.984375 6.9375 -7.109375 C 6.9375 -6.609375 6.828125 -6.175781 6.609375 -5.8125 C 6.390625 -5.457031 6.085938 -5.195312 5.703125 -5.03125 C 6.140625 -4.90625 6.476562 -4.648438 6.71875 -4.265625 C 6.957031 -3.890625 7.078125 -3.425781 7.078125 -2.875 C 7.078125 -1.925781 6.816406 -1.207031 6.296875 -0.71875 C 5.773438 -0.238281 5.019531 0 4.03125 0 Z M 2.765625 -4.25 L 2.765625 -1.640625 L 4.03125 -1.640625 C 4.382812 -1.640625 4.648438 -1.75 4.828125 -1.96875 C 5.015625 -2.1875 5.109375 -2.5 5.109375 -2.90625 C 5.109375 -3.78125 4.789062 -4.226562 4.15625 -4.25 Z M 2.765625 -5.6875 L 3.796875 -5.6875 C 4.566406 -5.6875 4.953125 -6.085938 4.953125 -6.890625 C 4.953125 -7.335938 4.863281 -7.65625 4.6875 -7.84375 C 4.507812 -8.039062 4.21875 -8.140625 3.8125 -8.140625 L 2.765625 -8.140625 Z M 2.765625 -5.6875 "/></g></g></g><g fill="#000000" fill-opacity="1"><g transform="translate(122.166495, 240.28185)"><g><path d="M 5.84375 -4.234375 L 2.765625 -4.234375 L 2.765625 -1.640625 L 6.40625 -1.640625 L 6.40625 0 L 0.78125 0 L 0.78125 -9.78125 L 6.390625 -9.78125 L 6.390625 -8.140625 L 2.765625 -8.140625 L 2.765625 -5.828125 L 5.84375 -5.828125 Z M 5.84375 -4.234375 "/></g></g></g><g fill="#000000" fill-opacity="1"><g transform="translate(129.895238, 240.28185)"><g><path d="M 4.921875 -2.5625 C 4.921875 -2.96875 4.816406 -3.269531 4.609375 -3.46875 C 4.410156 -3.675781 4.039062 -3.890625 3.5 -4.109375 C 2.519531 -4.484375 1.8125 -4.914062 1.375 -5.40625 C 0.945312 -5.90625 0.734375 -6.5 0.734375 -7.1875 C 0.734375 -8.007812 1.023438 -8.671875 1.609375 -9.171875 C 2.203125 -9.671875 2.945312 -9.921875 3.84375 -9.921875 C 4.445312 -9.921875 4.984375 -9.789062 5.453125 -9.53125 C 5.921875 -9.28125 6.28125 -8.925781 6.53125 -8.46875 C 6.789062 -8.007812 6.921875 -7.484375 6.921875 -6.890625 L 4.953125 -6.890625 C 4.953125 -7.347656 4.851562 -7.695312 4.65625 -7.9375 C 4.457031 -8.175781 4.175781 -8.296875 3.8125 -8.296875 C 3.46875 -8.296875 3.195312 -8.191406 3 -7.984375 C 2.8125 -7.785156 2.71875 -7.515625 2.71875 -7.171875 C 2.71875 -6.898438 2.820312 -6.65625 3.03125 -6.4375 C 3.25 -6.21875 3.632812 -5.992188 4.1875 -5.765625 C 5.132812 -5.421875 5.820312 -5 6.25 -4.5 C 6.6875 -4 6.90625 -3.359375 6.90625 -2.578125 C 6.90625 -1.722656 6.632812 -1.054688 6.09375 -0.578125 C 5.550781 -0.0976562 4.816406 0.140625 3.890625 0.140625 C 3.253906 0.140625 2.675781 0.0078125 2.15625 -0.25 C 1.632812 -0.507812 1.226562 -0.878906 0.9375 -1.359375 C 0.644531 -1.847656 0.5 -2.421875 0.5 -3.078125 L 2.484375 -3.078125 C 2.484375 -2.515625 2.59375 -2.101562 2.8125 -1.84375 C 3.03125 -1.59375 3.390625 -1.46875 3.890625 -1.46875 C 4.578125 -1.46875 4.921875 -1.832031 4.921875 -2.5625 Z M 4.921875 -2.5625 "/></g></g></g><g fill="#000000" fill-opacity="1"><g transform="translate(138.302465, 240.28185)"><g><path d="M 7.125 -8.140625 L 4.703125 -8.140625 L 4.703125 0 L 2.71875 0 L 2.71875 -8.140625 L 0.34375 -8.140625 L 0.34375 -9.78125 L 7.125 -9.78125 Z M 7.125 -8.140625 "/></g></g></g><g fill="#000000" fill-opacity="1"><g transform="translate(146.750001, 240.28185)"><g/></g></g><g fill="#000000" fill-opacity="1"><g transform="translate(150.898221, 240.28185)"><g><path d="M 7.125 -8.140625 L 4.703125 -8.140625 L 4.703125 0 L 2.71875 0 L 2.71875 -8.140625 L 0.34375 -8.140625 L 0.34375 -9.78125 L 7.125 -9.78125 Z M 7.125 -8.140625 "/></g></g></g><g fill="#000000" fill-opacity="1"><g transform="translate(159.345757, 240.28185)"><g><path d="M 3.75 -3.578125 L 2.765625 -3.578125 L 2.765625 0 L 0.796875 0 L 0.796875 -9.78125 L 3.953125 -9.78125 C 4.941406 -9.78125 5.703125 -9.523438 6.234375 -9.015625 C 6.773438 -8.503906 7.046875 -7.773438 7.046875 -6.828125 C 7.046875 -5.523438 6.570312 -4.613281 5.625 -4.09375 L 7.34375 -0.09375 L 7.34375 0 L 5.21875 0 Z M 2.765625 -5.21875 L 3.890625 -5.21875 C 4.285156 -5.21875 4.582031 -5.347656 4.78125 -5.609375 C 4.976562 -5.878906 5.078125 -6.234375 5.078125 -6.671875 C 5.078125 -7.648438 4.691406 -8.140625 3.921875 -8.140625 L 2.765625 -8.140625 Z M 2.765625 -5.21875 "/></g></g></g><g fill="#000000" fill-opacity="1"><g transform="translate(167.941081, 240.28185)"><g><path d="M 5.453125 -2 L 2.765625 -2 L 2.234375 0 L 0.140625 0 L 3.203125 -9.78125 L 5.015625 -9.78125 L 8.09375 0 L 5.984375 0 Z M 3.1875 -3.65625 L 5.015625 -3.65625 L 4.109375 -7.140625 Z M 3.1875 -3.65625 "/></g></g></g><g fill="#000000" fill-opacity="1"><g transform="translate(177.13428, 240.28185)"><g><path d="M 3.96875 -2.6875 L 5.625 -9.78125 L 7.828125 -9.78125 L 5 0 L 2.9375 0 L 0.140625 -9.78125 L 2.328125 -9.78125 Z M 3.96875 -2.6875 "/></g></g></g><g fill="#000000" fill-opacity="1"><g transform="translate(186.065489, 240.28185)"><g><path d="M 5.84375 -4.234375 L 2.765625 -4.234375 L 2.765625 -1.640625 L 6.40625 -1.640625 L 6.40625 0 L 0.78125 0 L 0.78125 -9.78125 L 6.390625 -9.78125 L 6.390625 -8.140625 L 2.765625 -8.140625 L 2.765625 -5.828125 L 5.84375 -5.828125 Z M 5.84375 -4.234375 "/></g></g></g><g fill="#000000" fill-opacity="1"><g transform="translate(193.794233, 240.28185)"><g><path d="M 2.765625 -1.640625 L 6.234375 -1.640625 L 6.234375 0 L 0.78125 0 L 0.78125 -9.78125 L 2.765625 -9.78125 Z M 2.765625 -1.640625 "/></g></g></g><g fill="#000000" fill-opacity="1"><g transform="translate(201.355035, 240.28185)"><g/></g></g><g fill="#000000" fill-opacity="1"><g transform="translate(205.503255, 240.28185)"><g><path d="M 7.140625 -3.640625 L 8.078125 -9.78125 L 10.03125 -9.78125 L 8.28125 0 L 6.3125 0 L 5.15625 -5.765625 L 4.03125 0 L 2.046875 0 L 0.296875 -9.78125 L 2.265625 -9.78125 L 3.1875 -3.640625 L 4.328125 -9.78125 L 6 -9.78125 Z M 7.140625 -3.640625 "/></g></g></g><g fill="#000000" fill-opacity="1"><g transform="translate(216.785647, 240.28185)"><g><path d="M 5.84375 -4.234375 L 2.765625 -4.234375 L 2.765625 -1.640625 L 6.40625 -1.640625 L 6.40625 0 L 0.78125 0 L 0.78125 -9.78125 L 6.390625 -9.78125 L 6.390625 -8.140625 L 2.765625 -8.140625 L 2.765625 -5.828125 L 5.84375 -5.828125 Z M 5.84375 -4.234375 "/></g></g></g><g fill="#000000" fill-opacity="1"><g transform="translate(224.514391, 240.28185)"><g><path d="M 0.78125 0 L 0.78125 -9.78125 L 3.8125 -9.78125 C 4.832031 -9.78125 5.609375 -9.550781 6.140625 -9.09375 C 6.671875 -8.644531 6.9375 -7.984375 6.9375 -7.109375 C 6.9375 -6.609375 6.828125 -6.175781 6.609375 -5.8125 C 6.390625 -5.457031 6.085938 -5.195312 5.703125 -5.03125 C 6.140625 -4.90625 6.476562 -4.648438 6.71875 -4.265625 C 6.957031 -3.890625 7.078125 -3.425781 7.078125 -2.875 C 7.078125 -1.925781 6.816406 -1.207031 6.296875 -0.71875 C 5.773438 -0.238281 5.019531 0 4.03125 0 Z M 2.765625 -4.25 L 2.765625 -1.640625 L 4.03125 -1.640625 C 4.382812 -1.640625 4.648438 -1.75 4.828125 -1.96875 C 5.015625 -2.1875 5.109375 -2.5 5.109375 -2.90625 C 5.109375 -3.78125 4.789062 -4.226562 4.15625 -4.25 Z M 2.765625 -5.6875 L 3.796875 -5.6875 C 4.566406 -5.6875 4.953125 -6.085938 4.953125 -6.890625 C 4.953125 -7.335938 4.863281 -7.65625 4.6875 -7.84375 C 4.507812 -8.039062 4.21875 -8.140625 3.8125 -8.140625 L 2.765625 -8.140625 Z M 2.765625 -5.6875 "/></g></g></g><g fill="#000000" fill-opacity="1"><g transform="translate(233.210481, 240.28185)"><g><path d="M 4.921875 -2.5625 C 4.921875 -2.96875 4.816406 -3.269531 4.609375 -3.46875 C 4.410156 -3.675781 4.039062 -3.890625 3.5 -4.109375 C 2.519531 -4.484375 1.8125 -4.914062 1.375 -5.40625 C 0.945312 -5.90625 0.734375 -6.5 0.734375 -7.1875 C 0.734375 -8.007812 1.023438 -8.671875 1.609375 -9.171875 C 2.203125 -9.671875 2.945312 -9.921875 3.84375 -9.921875 C 4.445312 -9.921875 4.984375 -9.789062 5.453125 -9.53125 C 5.921875 -9.28125 6.28125 -8.925781 6.53125 -8.46875 C 6.789062 -8.007812 6.921875 -7.484375 6.921875 -6.890625 L 4.953125 -6.890625 C 4.953125 -7.347656 4.851562 -7.695312 4.65625 -7.9375 C 4.457031 -8.175781 4.175781 -8.296875 3.8125 -8.296875 C 3.46875 -8.296875 3.195312 -8.191406 3 -7.984375 C 2.8125 -7.785156 2.71875 -7.515625 2.71875 -7.171875 C 2.71875 -6.898438 2.820312 -6.65625 3.03125 -6.4375 C 3.25 -6.21875 3.632812 -5.992188 4.1875 -5.765625 C 5.132812 -5.421875 5.820312 -5 6.25 -4.5 C 6.6875 -4 6.90625 -3.359375 6.90625 -2.578125 C 6.90625 -1.722656 6.632812 -1.054688 6.09375 -0.578125 C 5.550781 -0.0976562 4.816406 0.140625 3.890625 0.140625 C 3.253906 0.140625 2.675781 0.0078125 2.15625 -0.25 C 1.632812 -0.507812 1.226562 -0.878906 0.9375 -1.359375 C 0.644531 -1.847656 0.5 -2.421875 0.5 -3.078125 L 2.484375 -3.078125 C 2.484375 -2.515625 2.59375 -2.101562 2.8125 -1.84375 C 3.03125 -1.59375 3.390625 -1.46875 3.890625 -1.46875 C 4.578125 -1.46875 4.921875 -1.832031 4.921875 -2.5625 Z M 4.921875 -2.5625 "/></g></g></g><g fill="#000000" fill-opacity="1"><g transform="translate(241.617711, 240.28185)"><g><path d="M 2.84375 0 L 0.875 0 L 0.875 -9.78125 L 2.84375 -9.78125 Z M 2.84375 0 "/></g></g></g><g fill="#000000" fill-opacity="1"><g transform="translate(246.31678, 240.28185)"><g><path d="M 7.125 -8.140625 L 4.703125 -8.140625 L 4.703125 0 L 2.71875 0 L 2.71875 -8.140625 L 0.34375 -8.140625 L 0.34375 -9.78125 L 7.125 -9.78125 Z M 7.125 -8.140625 "/></g></g></g><g fill="#000000" fill-opacity="1"><g transform="translate(254.764316, 240.28185)"><g><path d="M 5.84375 -4.234375 L 2.765625 -4.234375 L 2.765625 -1.640625 L 6.40625 -1.640625 L 6.40625 0 L 0.78125 0 L 0.78125 -9.78125 L 6.390625 -9.78125 L 6.390625 -8.140625 L 2.765625 -8.140625 L 2.765625 -5.828125 L 5.84375 -5.828125 Z M 5.84375 -4.234375 "/></g></g></g><path stroke-linecap="butt" transform="matrix(0.75, 0, 0, 0.75, 102.333557, 159.492148)" fill="none" stroke-linejoin="miter" d="M 22.675051 13.921929 L 22.675051 19.401096 L 15.242758 19.401096 L 15.242758 42.000056 L 8.399008 42.000056 L 8.399008 19.401096 L 0.956299 19.401096 L 0.956299 13.921929 Z M 39.404218 42.281306 C 36.758385 42.281306 34.33651 41.671931 32.138593 40.447972 C 29.935468 39.218805 28.185468 37.500055 26.893801 35.302138 C 25.602134 33.099013 24.956301 30.625055 24.956301 27.880263 C 24.956301 25.130263 25.602134 22.661513 26.893801 20.474012 C 28.185468 18.286512 29.935468 16.583387 32.138593 15.359429 C 34.33651 14.13547 36.758385 13.520887 39.404218 13.520887 C 42.039635 13.520887 44.456302 14.13547 46.659427 15.359429 C 48.857344 16.583387 50.591719 18.286512 51.852136 20.474012 C 53.122969 22.661513 53.758386 25.130263 53.758386 27.880263 C 53.758386 30.625055 53.117761 33.099013 51.831302 35.302138 C 50.555261 37.500055 48.826094 39.218805 46.638594 40.447972 C 44.451094 41.671931 42.039635 42.281306 39.404218 42.281306 Z M 39.404218 36.041722 C 41.643802 36.041722 43.435469 35.29693 44.784427 33.807347 C 46.128177 32.307347 46.80526 30.333388 46.80526 27.880263 C 46.80526 25.395888 46.128177 23.416721 44.784427 21.942763 C 43.435469 20.463596 41.643802 19.724012 39.404218 19.724012 C 37.138593 19.724012 35.331301 20.458387 33.982343 21.921929 C 32.633385 23.385471 31.961509 25.369846 31.961509 27.880263 C 31.961509 30.35943 32.633385 32.343805 33.982343 33.82818 C 35.331301 35.302138 37.138593 36.041722 39.404218 36.041722 Z M 64.27922 13.921929 L 64.27922 30.718805 C 64.27922 32.401097 64.690678 33.697972 65.518803 34.60943 C 66.346928 35.510472 67.56047 35.963597 69.159429 35.963597 C 70.763595 35.963597 71.992762 35.510472 72.84172 34.60943 C 73.695887 33.697972 74.122971 32.401097 74.122971 30.718805 L 74.122971 13.921929 L 80.956304 13.921929 L 80.956304 30.682346 C 80.956304 33.187555 80.425054 35.307347 79.357346 37.036514 C 78.289638 38.770889 76.852137 40.07818 75.050054 40.963597 C 73.253179 41.843806 71.253179 42.281306 69.044845 42.281306 C 66.831303 42.281306 64.846928 41.849014 63.096928 40.98443 C 61.352136 40.10943 59.971928 38.802139 58.956303 37.057347 C 57.945886 35.312555 57.440678 33.187555 57.440678 30.682346 L 57.440678 13.921929 Z M 100.076097 42.000056 L 94.237555 31.406305 L 92.59693 31.406305 L 92.59693 42.000056 L 85.758388 42.000056 L 85.758388 13.921929 L 97.242764 13.921929 C 99.451097 13.921929 101.336514 14.312554 102.899014 15.083387 C 104.461514 15.85422 105.628181 16.911512 106.393806 18.260471 C 107.169848 19.609429 107.555264 21.109429 107.555264 22.760471 C 107.555264 24.630263 107.029223 26.296929 105.977139 27.760471 C 104.925056 29.224013 103.372972 30.26568 101.315681 30.875055 L 107.800056 42.000056 Z M 92.59693 26.562555 L 96.84693 26.562555 C 98.09693 26.562555 99.034431 26.255263 99.659431 25.640679 C 100.289639 25.031304 100.602139 24.161513 100.602139 23.036513 C 100.602139 21.974013 100.289639 21.135471 99.659431 20.526096 C 99.034431 19.906304 98.09693 19.599012 96.84693 19.599012 L 92.59693 19.599012 Z M 92.59693 26.562555 " stroke="#ffffff" stroke-width="7" stroke-opacity="1" stroke-miterlimit="4"/><g fill="#16aee8" fill-opacity="1"><g transform="translate(102.333557, 190.992146)"><g><path d="M 17.015625 -21.0625 L 17.015625 -16.953125 L 11.4375 -16.953125 L 11.4375 0 L 6.296875 0 L 6.296875 -16.953125 L 0.71875 -16.953125 L 0.71875 -21.0625 Z M 17.015625 -21.0625 "/></g></g></g><g fill="#16aee8" fill-opacity="1"><g transform="translate(120.063544, 190.992146)"><g><path d="M 11.8125 0.203125 C 9.832031 0.203125 8.019531 -0.253906 6.375 -1.171875 C 4.726562 -2.085938 3.414062 -3.367188 2.4375 -5.015625 C 1.46875 -6.671875 0.984375 -8.53125 0.984375 -10.59375 C 0.984375 -12.65625 1.46875 -14.503906 2.4375 -16.140625 C 3.414062 -17.773438 4.726562 -19.050781 6.375 -19.96875 C 8.019531 -20.894531 9.832031 -21.359375 11.8125 -21.359375 C 13.800781 -21.359375 15.617188 -20.894531 17.265625 -19.96875 C 18.910156 -19.050781 20.207031 -17.773438 21.15625 -16.140625 C 22.113281 -14.503906 22.59375 -12.65625 22.59375 -10.59375 C 22.59375 -8.53125 22.109375 -6.671875 21.140625 -5.015625 C 20.179688 -3.367188 18.882812 -2.085938 17.25 -1.171875 C 15.613281 -0.253906 13.800781 0.203125 11.8125 0.203125 Z M 11.8125 -4.46875 C 13.5 -4.46875 14.847656 -5.023438 15.859375 -6.140625 C 16.867188 -7.265625 17.375 -8.75 17.375 -10.59375 C 17.375 -12.445312 16.867188 -13.925781 15.859375 -15.03125 C 14.847656 -16.144531 13.5 -16.703125 11.8125 -16.703125 C 10.113281 -16.703125 8.757812 -16.148438 7.75 -15.046875 C 6.738281 -13.953125 6.234375 -12.46875 6.234375 -10.59375 C 6.234375 -8.726562 6.738281 -7.238281 7.75 -6.125 C 8.757812 -5.019531 10.113281 -4.46875 11.8125 -4.46875 Z M 11.8125 -4.46875 "/></g></g></g><g fill="#16aee8" fill-opacity="1"><g transform="translate(143.643521, 190.992146)"><g><path d="M 6.90625 -21.0625 L 6.90625 -8.453125 C 6.90625 -7.191406 7.210938 -6.222656 7.828125 -5.546875 C 8.453125 -4.867188 9.363281 -4.53125 10.5625 -4.53125 C 11.757812 -4.53125 12.675781 -4.867188 13.3125 -5.546875 C 13.957031 -6.222656 14.28125 -7.191406 14.28125 -8.453125 L 14.28125 -21.0625 L 19.40625 -21.0625 L 19.40625 -8.484375 C 19.40625 -6.609375 19.003906 -5.019531 18.203125 -3.71875 C 17.410156 -2.414062 16.335938 -1.4375 14.984375 -0.78125 C 13.628906 -0.125 12.125 0.203125 10.46875 0.203125 C 8.8125 0.203125 7.328125 -0.117188 6.015625 -0.765625 C 4.703125 -1.410156 3.664062 -2.390625 2.90625 -3.703125 C 2.144531 -5.015625 1.765625 -6.609375 1.765625 -8.484375 L 1.765625 -21.0625 Z M 6.90625 -21.0625 "/></g></g></g><g fill="#16aee8" fill-opacity="1"><g transform="translate(164.793494, 190.992146)"><g><path d="M 12.59375 0 L 8.21875 -7.953125 L 6.984375 -7.953125 L 6.984375 0 L 1.859375 0 L 1.859375 -21.0625 L 10.46875 -21.0625 C 12.125 -21.0625 13.535156 -20.769531 14.703125 -20.1875 C 15.878906 -19.601562 16.753906 -18.804688 17.328125 -17.796875 C 17.910156 -16.796875 18.203125 -15.675781 18.203125 -14.4375 C 18.203125 -13.03125 17.804688 -11.773438 17.015625 -10.671875 C 16.234375 -9.578125 15.070312 -8.800781 13.53125 -8.34375 L 18.390625 0 Z M 6.984375 -11.578125 L 10.171875 -11.578125 C 11.109375 -11.578125 11.8125 -11.804688 12.28125 -12.265625 C 12.75 -12.722656 12.984375 -13.375 12.984375 -14.21875 C 12.984375 -15.019531 12.75 -15.648438 12.28125 -16.109375 C 11.8125 -16.566406 11.109375 -16.796875 10.171875 -16.796875 L 6.984375 -16.796875 Z M 6.984375 -11.578125 "/></g></g></g><g fill="#16aee8" fill-opacity="1"><g transform="translate(184.364802, 190.992146)"><g/></g></g><path stroke-linecap="butt" transform="matrix(0.75, 0, 0, 0.75, 187.499992, 159.492148)" fill="none" stroke-linejoin="miter" d="M 26.151054 42.000056 L 16.708345 29.599013 L 16.708345 42.000056 L 9.869803 42.000056 L 9.869803 13.921929 L 16.708345 13.921929 L 16.708345 26.239638 L 26.072929 13.921929 L 34.109388 13.921929 L 23.229179 27.682346 L 34.510429 42.000056 Z M 44.588555 13.921929 L 44.588555 42.000056 L 37.750013 42.000056 L 37.750013 13.921929 Z M 74.666682 42.000056 L 67.833348 42.000056 L 56.385431 24.677138 L 56.385431 42.000056 L 49.552097 42.000056 L 49.552097 13.921929 L 56.385431 13.921929 L 67.833348 31.317763 L 67.833348 13.921929 L 74.666682 13.921929 Z M 98.276059 22.802138 C 97.765642 21.869846 97.036475 21.156304 96.088558 20.661512 C 95.140642 20.166721 94.031267 19.921929 92.744808 19.921929 C 90.531266 19.921929 88.760433 20.645887 87.421891 22.099013 C 86.093766 23.546929 85.432308 25.489638 85.432308 27.916721 C 85.432308 30.510471 86.130224 32.531305 87.531266 33.98443 C 88.932308 35.432347 90.859391 36.161513 93.312517 36.161513 C 94.994808 36.161513 96.411475 35.73443 97.572933 34.880263 C 98.729184 34.026097 99.578142 32.802138 100.109392 31.197971 L 91.4271 31.197971 L 91.4271 26.161513 L 106.312517 26.161513 L 106.312517 32.51568 C 105.802101 34.224013 104.942726 35.812555 103.723976 37.281305 C 102.510434 38.750055 100.973975 39.932347 99.104184 40.838597 C 97.2396 41.744847 95.140642 42.192764 92.796892 42.192764 C 90.02085 42.192764 87.546891 41.588597 85.375016 40.380264 C 83.197933 39.166722 81.505224 37.479222 80.286474 35.317763 C 79.072932 33.156305 78.468766 30.692763 78.468766 27.916721 C 78.468766 25.145888 79.072932 22.671929 80.286474 20.505262 C 81.505224 18.333387 83.187516 16.640679 85.343766 15.427137 C 87.505224 14.208387 89.973975 13.599012 92.744808 13.599012 C 96.1146 13.599012 98.947934 14.41672 101.250017 16.04172 C 103.557309 17.671929 105.083351 19.921929 105.833351 22.802138 Z M 98.276059 22.802138 " stroke="#ffffff" stroke-width="7" stroke-opacity="1" stroke-miterlimit="4"/><g fill="#ffde59" fill-opacity="1"><g transform="translate(193.042961, 190.992146)"><g><path d="M 14.0625 0 L 6.984375 -9.296875 L 6.984375 0 L 1.859375 0 L 1.859375 -21.0625 L 6.984375 -21.0625 L 6.984375 -11.8125 L 14.015625 -21.0625 L 20.046875 -21.0625 L 11.875 -10.734375 L 20.34375 0 Z M 14.0625 0 "/></g></g></g><g fill="#ffde59" fill-opacity="1"><g transform="translate(213.95294, 190.992146)"><g><path d="M 6.984375 -21.0625 L 6.984375 0 L 1.859375 0 L 1.859375 -21.0625 Z M 6.984375 -21.0625 "/></g></g></g><g fill="#ffde59" fill-opacity="1"><g transform="translate(222.80293, 190.992146)"><g><path d="M 20.703125 0 L 15.5625 0 L 6.984375 -12.984375 L 6.984375 0 L 1.859375 0 L 1.859375 -21.0625 L 6.984375 -21.0625 L 15.5625 -8.015625 L 15.5625 -21.0625 L 20.703125 -21.0625 Z M 20.703125 0 "/></g></g></g><g fill="#ffde59" fill-opacity="1"><g transform="translate(245.362907, 190.992146)"><g><path d="M 15.84375 -14.40625 C 15.457031 -15.101562 14.910156 -15.632812 14.203125 -16 C 13.492188 -16.375 12.660156 -16.5625 11.703125 -16.5625 C 10.035156 -16.5625 8.703125 -16.015625 7.703125 -14.921875 C 6.703125 -13.835938 6.203125 -12.382812 6.203125 -10.5625 C 6.203125 -8.625 6.726562 -7.109375 7.78125 -6.015625 C 8.832031 -4.921875 10.28125 -4.375 12.125 -4.375 C 13.382812 -4.375 14.445312 -4.691406 15.3125 -5.328125 C 16.1875 -5.972656 16.820312 -6.894531 17.21875 -8.09375 L 10.703125 -8.09375 L 10.703125 -11.875 L 21.875 -11.875 L 21.875 -7.109375 C 21.488281 -5.828125 20.835938 -4.632812 19.921875 -3.53125 C 19.015625 -2.4375 17.863281 -1.546875 16.46875 -0.859375 C 15.070312 -0.179688 13.492188 0.15625 11.734375 0.15625 C 9.648438 0.15625 7.789062 -0.296875 6.15625 -1.203125 C 4.53125 -2.117188 3.257812 -3.382812 2.34375 -5 C 1.4375 -6.625 0.984375 -8.476562 0.984375 -10.5625 C 0.984375 -12.644531 1.4375 -14.5 2.34375 -16.125 C 3.257812 -17.75 4.523438 -19.015625 6.140625 -19.921875 C 7.765625 -20.835938 9.617188 -21.296875 11.703125 -21.296875 C 14.222656 -21.296875 16.347656 -20.6875 18.078125 -19.46875 C 19.804688 -18.25 20.953125 -16.5625 21.515625 -14.40625 Z M 15.84375 -14.40625 "/></g></g></g></svg>